<svg xmlns="http://www.w3.org/2000/svg" viewBox="0 0 200 200">
    <g transform="translate(0, 10) scale(0.85)">
        <path fill="#FF7A59" d="M155.4 69.2V45.6a18.2 18.2 0 0 0 10.5-16.4v-.5c0-10-8.1-18.2-18.2-18.2h-.5c-10 0-18.2 8.1-18.2 18.2v.5a18.2 18.2 0 0 0 10.5 16.4v23.6a51.5 51.5 0 0 0-24.5 10.8L50.8 29.7c.5-1.7.7-3.4.7-5.1a20.5 20.5 0 1 0-20.5 20.4 20.3 20.3 0 0 0 10.1-2.7l63.8 49.6c-11.7 17.7-11.4 40.8.8 58.2l-19.4 19.4c-1.6-.5-3.2-.8-4.9-.8-9.3 0-16.8 7.5-16.8 16.8s7.5 16.8 16.8 16.8 16.8-7.5 16.8-16.8c0-1.7-.2-3.3-.8-4.9l19.2-19.2a48.8 48.8 0 0 0 59 2.8c18.3-11.5 27.6-33.1 23.2-54.3-4.4-21.2-21.5-37.4-42.9-40.6m-8 77.6c-14.6 0-26.6-11.9-26.6-26.5s12-26.6 26.6-26.6 26.6 12 26.6 26.6-12 26.5-26.6 26.5z" />
    </g>
</svg>